<?xml version="1.0" encoding="UTF-8" standalone="no"?>
<!DOCTYPE svg PUBLIC "-//W3C//DTD SVG 1.1//EN" "http://www.w3.org/Graphics/SVG/1.1/DTD/svg11.dtd">
<svg width="100%" height="100%" viewBox="0 0 300 300" version="1.1" xmlns="http://www.w3.org/2000/svg" xmlns:xlink="http://www.w3.org/1999/xlink" xml:space="preserve" xmlns:serif="http://www.serif.com/" style="fill-rule:evenodd;clip-rule:evenodd;stroke-linejoin:round;stroke-miterlimit:2;">
    <g transform="matrix(0.444202,0,0,0.444202,-7.87889,-5.66814)">
        <g transform="matrix(59.3628,0,0,59.3628,291.043,88.436)">
        </g>
        <text x="50.171px" y="88.436px" style="font-family:'ArialMT', 'Arial', sans-serif;font-size:59.363px;fill:rgb(229,229,229);">Regards,</text>
    </g>
    <g transform="matrix(1.35643,0,0,1.35643,-56.1778,-32.4416)">
        <rect x="53.565" y="60.348" width="178.467" height="49.968" style="fill:rgb(211,211,211);"/>
    </g>
    <g transform="matrix(1.0351,0,0,1.35643,-38.9652,45.4472)">
        <rect x="53.565" y="60.348" width="178.467" height="49.968" style="fill:rgb(211,211,211);"/>
    </g>
    <g transform="matrix(1.35643,0,0,1.35643,-56.1778,131.555)">
        <rect x="53.565" y="60.348" width="178.467" height="49.968" style="fill:rgb(211,211,211);"/>
    </g>
    <g transform="matrix(0.678216,-1.17471,1.17471,0.678216,-125.225,228.927)">
        <path d="M150,53.567C203.223,53.567 246.433,96.777 246.433,150C246.433,203.223 203.223,246.433 150,246.433C96.777,246.433 53.567,203.223 53.567,150C53.567,96.777 96.777,53.567 150,53.567ZM129.941,83.186C101.211,91.811 80.254,118.477 80.254,150C80.254,181.523 101.211,208.189 129.941,216.814L129.941,83.186ZM159.301,219.13C193.405,214.577 219.746,185.34 219.746,150C219.746,114.66 193.405,85.423 159.301,80.87L159.301,219.13Z" style="fill:rgb(36,36,36);"/>
    </g>
    <g transform="matrix(0.678216,-1.17471,1.17471,0.678216,-130.651,224.857)">
        <path d="M150,53.567C203.223,53.567 246.433,96.777 246.433,150C246.433,203.223 203.223,246.433 150,246.433C96.777,246.433 53.567,203.223 53.567,150C53.567,96.777 96.777,53.567 150,53.567ZM129.941,83.186C101.211,91.811 80.254,118.477 80.254,150C80.254,181.523 101.211,208.189 129.941,216.814L129.941,83.186ZM159.301,219.13C193.405,214.577 219.746,185.34 219.746,150C219.746,114.66 193.405,85.423 159.301,80.87L159.301,219.13Z" style="fill:rgb(209,24,25);"/>
    </g>
</svg>
